<svg width="958" height="822" viewBox="0 0 958 822" fill="none" xmlns="http://www.w3.org/2000/svg">
<path d="M807.372 148.603C857.99 201.493 816.078 319.455 808.789 431.243C801.297 543.199 828.429 648.98 777.81 714.885C727.191 780.79 598.822 806.819 495.761 785.963C392.701 765.107 314.951 697.366 241.249 631.461C167.751 565.556 98.3015 501.486 70.9673 414.725C43.4306 328.131 58.0089 218.679 131.508 165.955C205.006 113.064 337.83 116.735 475.716 112.396C613.602 108.058 756.753 95.7116 807.372 148.603Z" fill="#F9C096"/>
<path d="M55.9393 821.061C56.5251 821.646 57.4749 821.646 58.0607 821.061L67.6066 811.515C68.1924 810.929 68.1924 809.979 67.6066 809.393C67.0208 808.808 66.0711 808.808 65.4853 809.393L57 817.879L48.5147 809.393C47.9289 808.808 46.9792 808.808 46.3934 809.393C45.8076 809.979 45.8076 810.929 46.3934 811.515L55.9393 821.061ZM55.5 818L55.5 820L58.5 820L58.5 818L55.5 818Z" fill="#163F8F"/>
<g clip-path="url(#clip0_24_5)">
<path d="M715.105 403.645H280.137C274.307 403.645 269.563 398.268 269.563 391.658V223.333C269.563 216.724 274.307 211.347 280.137 211.347H715.105C720.936 211.347 725.679 216.724 725.679 223.333V391.658C725.679 398.268 720.936 403.645 715.105 403.645ZM280.137 212.776C275.002 212.776 270.824 217.512 270.824 223.333V391.658C270.824 397.48 275.002 402.216 280.137 402.216H715.105C720.24 402.216 724.418 397.48 724.418 391.658V223.333C724.418 217.512 720.24 212.776 715.105 212.776H280.137V212.776Z" fill="#F0EFF8"/>
<path d="M520.152 291.93C524.164 289.865 526.388 285.456 525.12 282.083C523.852 278.71 519.572 277.651 515.56 279.717C513.946 280.514 512.541 281.808 511.462 283.493L494.572 292.527L498.802 302.923L515.004 292.914C516.795 293.122 518.56 292.785 520.152 291.93Z" fill="#FFB6B6"/>
<path d="M425.035 338.54C425.035 338.54 418.282 329.729 423.194 322.532C428.105 315.336 494.505 289.737 494.505 289.737L499.322 303.649L452.583 321.89L425.035 338.54L425.035 338.54Z" fill="#E6E6E6"/>
<path d="M434.407 539.086L441.711 539.085L445.186 507.117L434.405 507.118L434.407 539.086Z" fill="#FFB6B6"/>
<path d="M459.433 538.898C459.661 539.333 459.781 540.736 459.781 541.241C459.781 542.795 458.671 544.054 457.301 544.054H434.68C433.746 544.054 432.988 543.195 432.988 542.135V541.067C432.988 541.067 431.869 537.855 434.173 533.896C434.173 533.896 437.037 536.996 441.316 532.141L442.577 529.547L451.711 537.127L456.774 537.834C457.881 537.988 458.863 537.81 459.433 538.898H459.433H459.433Z" fill="#2F2E41"/>
<path d="M476.677 537.714L483.755 535.662L480.148 503.712L469.703 506.741L476.677 537.714Z" fill="#FFB6B6"/>
<path d="M500.884 530.504C501.199 530.861 501.622 532.186 501.732 532.676C502.071 534.181 501.27 535.713 499.943 536.098L478.026 542.451C477.121 542.713 476.2 542.093 475.968 541.066L475.735 540.031C475.735 540.031 473.95 537.233 475.319 532.751C475.319 532.751 478.77 534.95 481.856 529.044L482.513 526.177L493.016 530.956L498.075 530.219C499.182 530.058 500.095 529.609 500.884 530.504H500.884V530.504Z" fill="#2F2E41"/>
<path d="M428.363 294.694L428.017 291.842L432.133 280.435L443.443 279.009L445.886 295.34L428.363 294.694Z" fill="#FFB6B6"/>
<path opacity="0.1" d="M428.363 294.694L428.017 291.842L432.133 280.435L443.443 279.009L445.886 295.34L428.363 294.694Z" fill="black"/>
<path d="M415.168 375.256L410.141 390.941L413.911 399.496L432.762 523.548H445.294L442.815 413.755L471.719 523.548H484.123L474.148 449.402L466.692 380.96L462.17 377.79L440.302 363.849L415.168 375.256Z" fill="#2F2E41"/>
<path d="M447.214 385.951L439.674 387.377L429.62 360.285H452.24L447.214 385.951Z" fill="#E6E6E6"/>
<path d="M462.294 378.821L447.214 385.95L442.187 373.117L439.674 387.376L413.283 377.737L417.053 360.284L413.283 303.249L426.591 293.182L428.363 291.842L444.7 293.268L446.133 294.152L456.011 300.397L458.524 347.451L462.294 378.821Z" fill="#2F2E41"/>
<path d="M446.133 294.152L439.045 328.202L426.591 293.182L428.363 291.842L444.7 293.268L446.133 294.152Z" fill="#E6E6E6"/>
<path d="M434.018 291.842L431.505 296.753L434.018 298.39L432.762 328.29L437.788 336.044L442.815 324.584L439.045 298.39L440.302 291.842H434.018Z" fill="#2F2E41"/>
<path d="M437.788 288.99C444.382 288.99 449.727 282.926 449.727 275.444C449.727 267.963 444.382 261.898 437.788 261.898C431.195 261.898 425.85 267.963 425.85 275.444C425.85 282.926 431.195 288.99 437.788 288.99Z" fill="#FFB6B6"/>
<path d="M430.159 276.633L432.738 277.91L433.864 270.246C433.864 270.246 438.367 267.691 441.745 268.968C445.122 270.246 450.751 268.968 450.751 268.968C450.751 268.968 450.751 256.195 442.87 256.195C434.99 256.195 427.109 257.472 427.109 261.304C427.109 265.136 423.732 268.968 423.732 268.968C423.732 268.968 419.229 276.633 423.732 281.742C428.235 286.851 430.487 286.851 430.487 286.851L430.159 276.633Z" fill="#2F2E41"/>
<path d="M406.994 409.643C406.863 415.151 409.262 419.693 412.351 419.787C415.441 419.881 418.051 415.492 418.181 409.981C418.26 407.781 417.873 405.591 417.053 403.595L417.348 380.247L407.688 380.324L408.423 403.332C407.509 405.276 407.019 407.44 406.994 409.643V409.643Z" fill="#FFB6B6"/>
<path d="M418.944 300.37C418.944 300.37 410.776 297.519 407.006 306.074C403.236 314.629 408.262 401.608 408.262 401.608H420.943L417.578 340.295L418.944 300.37V300.37Z" fill="#E6E6E6"/>
<path d="M732.296 462.412L701.834 451.832C701.16 451.598 700.453 451.512 699.751 451.58L545.366 466.488C543.165 466.701 542.612 470.07 544.598 471.167L549.543 473.901H549.411V604.761H554.071V476.404L569.57 484.971C570.756 485.627 572.079 485.894 573.391 485.744L575.04 485.555V604.761H579.7V485.021L699.11 471.335V604.761H703.77V470.801L723.574 468.532V604.761H728.234V467.997L731.847 467.583C734.383 467.293 734.734 463.259 732.296 462.412H732.296Z" fill="#3F3D56"/>
<path d="M590.185 465.97C593.097 465.97 636.201 460.022 636.201 460.022L642.609 469.936L597.757 479.849L590.185 465.97V465.97Z" fill="white"/>
<path d="M637.492 599.679L630.003 599.663L626.491 566.882L637.543 566.904L637.492 599.679Z" fill="#A0616A"/>
<path d="M611.835 599.436C611.601 599.881 611.476 601.319 611.475 601.837C611.473 603.43 612.609 604.723 614.013 604.726L637.204 604.771C638.162 604.773 638.94 603.894 638.941 602.807L638.943 601.711C638.943 601.711 640.095 598.421 637.739 594.358C637.739 594.358 634.799 597.53 630.42 592.544L629.13 589.883L619.754 597.635L614.563 598.35C613.427 598.506 612.421 598.321 611.835 599.436H611.835L611.835 599.436Z" fill="#2F2E41"/>
<path d="M677.685 584.435L671.776 589.491L651.774 566.04L660.495 558.577L677.685 584.435Z" fill="#A0616A"/>
<path d="M657.342 601.609C657.391 602.118 658.049 603.335 658.32 603.744C659.156 605.001 660.731 605.251 661.838 604.303L680.135 588.642C680.891 587.995 681.041 586.776 680.471 585.919L679.897 585.054C679.897 585.054 679.075 581.682 675.082 580.075C675.082 580.075 674.433 584.565 668.362 583.6L665.946 582.376L662.635 594.83L658.92 598.906C658.107 599.798 657.217 600.334 657.342 601.609L657.342 601.609V601.609Z" fill="#2F2E41"/>
<path d="M662.034 415.012C662.034 422.848 656.435 429.2 649.53 429.2C642.624 429.2 637.025 422.848 637.025 415.012C637.025 407.177 642.624 400.825 649.53 400.825C656.435 400.825 662.034 407.177 662.034 415.012Z" fill="#A0616A"/>
<path d="M660.856 496.816C660.856 496.816 614.817 493.859 612.211 499.773C609.605 505.686 626.299 586.916 626.299 586.916L641.193 583.375L633.927 526.384C633.927 526.384 672.346 537.929 677.558 524.13C682.77 510.332 681.269 505.194 681.269 505.194L660.856 496.816V496.816Z" fill="#2F2E41"/>
<path d="M672.651 486.889C672.651 486.889 627.563 497.856 626.429 504.341C625.294 510.827 660.332 584.152 660.332 584.152L673.87 576.266L653.576 523.487C653.576 523.487 693.317 523.089 695.127 508.217C696.936 493.346 694.291 488.841 694.291 488.841L672.651 486.889V486.889Z" fill="#2F2E41"/>
<path d="M677.795 431.272H656.133L641.311 458.87C641.311 458.87 637.836 476.704 641.311 478.628C644.786 480.553 644.786 501.251 644.786 501.251L681.269 505.193C681.269 505.193 686.481 443.1 684.744 437.186C683.007 431.272 677.795 431.272 677.795 431.272V431.272Z" fill="#5852C5"/>
<path d="M643.483 449.506L641.311 478.628L616.885 466.866L611.055 463.539C609.913 461.85 608.431 460.495 606.733 459.589C602.511 457.254 598.029 457.833 596.72 460.88C595.411 463.928 597.771 468.29 601.992 470.623C603.668 471.582 605.522 472.072 607.399 472.051L624.456 483.044L624.476 483.001L624.552 483.154L651.3 495.83L657.455 457.6L643.482 449.506H643.483Z" fill="#A0616A"/>
<path d="M640.877 416.981C640.877 416.981 627.847 418.952 633.059 406.139C633.059 406.139 632.264 399.194 636.136 398.724C640.008 398.254 645.22 390.37 645.22 390.37C645.22 390.37 657.169 383.47 663.356 390.37C669.542 397.269 687.784 437.679 687.784 437.679L675.623 452.463C675.623 452.463 668.312 430.656 659.806 433.182C651.3 435.708 643.483 443.24 643.483 443.24C643.483 443.24 634.851 438.338 638.732 434.066C642.614 429.794 640.877 416.981 640.877 416.981Z" fill="#2F2E41"/>
<path d="M658.25 438.664C658.25 438.664 652.169 429.794 647.826 436.693C643.483 443.592 640.008 452.463 640.008 452.463L657.381 459.362L658.25 438.664H658.25Z" fill="#5852C5"/>
<path d="M724.213 602.799L704.029 530.006L704.032 530.005H704.078L703.997 529.886L703.995 529.884L702.557 524.699L702.558 524.698C704.748 522.557 706.239 519.497 706.536 515.974L697.31 458.396C697.945 450.835 692.836 444.226 686.144 443.955L665.326 443.896C659.408 443.658 654.282 448.509 653.42 455.157L652.959 458.687L646.581 507.918C646.348 509.689 646.441 511.434 646.808 513.066L642.218 513.747L640.826 513.958L635.322 514.771L635.304 514.778L634.617 514.877H633.871V536.026H633.918V603.624C633.918 604.06 634.232 604.417 634.617 604.417C635.007 604.417 635.322 604.06 635.322 603.624V536.026H643.488L651.637 603.544C651.69 603.941 651.987 604.232 652.336 604.232C652.365 604.232 652.4 604.232 652.429 604.225C652.814 604.166 653.082 603.763 653.029 603.326L644.909 536.026H684.093C687.984 536.026 691.589 534.625 694.525 532.227L710.06 603.421C710.141 603.781 710.427 604.02 710.74 604.02C710.797 604.02 710.855 604.013 710.913 603.996C711.289 603.887 711.516 603.454 711.42 603.028L695.734 531.146C695.943 530.948 696.152 530.738 696.349 530.521L702.585 530.105L722.875 603.277C722.969 603.617 723.246 603.834 723.544 603.834C723.614 603.834 723.685 603.822 723.755 603.797C724.124 603.665 724.33 603.218 724.213 602.799V602.799ZM701.224 525.828C701.276 525.795 701.323 525.756 701.37 525.723L701.37 525.722L701.52 526.263L701.224 525.828V525.828Z" fill="#E6E6E6"/>
<path d="M328.154 479.412L341.739 469.61L347.261 473.39L328.154 498.301V479.412Z" fill="#FFB6B6"/>
<path d="M309.578 441.472C309.578 441.472 300.555 443.881 304.801 457.732C309.047 471.583 322.847 500.489 327.093 498.683C331.339 496.876 331.869 478.81 331.869 478.81C331.869 478.81 331.339 479.412 329.216 477.003C327.093 474.594 327.093 475.694 327.093 473.036C327.093 470.379 325.356 468.408 325.356 468.408L323.377 463.754C323.377 463.754 323.377 442.075 315.416 440.87C307.455 439.666 309.578 441.472 309.578 441.472L309.578 441.472Z" fill="#E6E6E6"/>
<path d="M351.733 472.742C355.256 468.744 356.349 463.501 354.172 461.032C351.996 458.562 347.375 459.801 343.851 463.799C340.328 467.798 339.236 473.04 341.412 475.51C343.588 477.979 348.209 476.74 351.733 472.742Z" fill="#FFB6B6"/>
<path d="M274.434 521.266L283.703 538.674L337.721 535.047L323.338 514.013L274.434 521.266Z" fill="#E6E6E6"/>
<path d="M290.574 602.685C290.26 602.685 289.986 602.421 289.942 602.058L273.8 468.297C273.752 467.9 273.997 467.534 274.347 467.48C274.696 467.423 275.019 467.703 275.067 468.1L291.208 601.861C291.256 602.258 291.012 602.624 290.662 602.678C290.632 602.682 290.603 602.685 290.574 602.685Z" fill="#E6E6E6"/>
<path d="M274.434 602.855C274.08 602.855 273.794 602.53 273.794 602.129V468.225C273.794 467.824 274.08 467.5 274.434 467.5C274.787 467.5 275.073 467.824 275.073 468.225V602.129C275.073 602.53 274.787 602.855 274.434 602.855Z" fill="#E6E6E6"/>
<path d="M355.461 602.323C355.189 602.323 354.937 602.124 354.851 601.815L316.655 464.065C316.549 463.683 316.736 463.275 317.073 463.155C317.409 463.035 317.768 463.247 317.874 463.629L356.071 601.379C356.177 601.761 355.989 602.168 355.653 602.289C355.589 602.312 355.524 602.323 355.461 602.323V602.323Z" fill="#E6E6E6"/>
<path d="M343.794 602.492C343.508 602.492 343.248 602.274 343.175 601.945L316.645 480.372C316.558 479.983 316.765 479.588 317.107 479.49C317.45 479.392 317.797 479.626 317.884 480.014L344.414 601.588C344.501 601.976 344.294 602.371 343.952 602.47C343.899 602.485 343.846 602.492 343.794 602.492H343.794Z" fill="#E6E6E6"/>
<path d="M274.434 470.358L318.703 469.585L326.854 522.354H275.073L274.434 470.358Z" fill="#E6E6E6"/>
<path d="M342.464 547.95L331.308 570.237L344.262 573.473L349.662 557.622L342.464 547.95Z" fill="#FFB6B6"/>
<path d="M335.315 566.029C335.315 566.029 334.881 562.395 332.333 563.548C329.784 564.702 322.428 568.988 322.428 568.988C322.428 568.988 341.614 604.359 345.255 602.711C348.896 601.063 344.537 591.065 344.537 591.065L345.499 573.392L335.315 566.029H335.315Z" fill="#2F2E41"/>
<path d="M293.124 504.705C293.124 504.705 289.144 525.481 301.351 532.708C313.558 539.935 355.223 522.169 355.223 522.169L336.115 554.653L349.384 560.711C349.384 560.711 379.637 515.545 377.514 508.318C375.391 501.092 361.061 500.49 361.061 500.49L328.685 502.296L320.193 499.285L293.124 504.705H293.124Z" fill="#2F2E41"/>
<path d="M325.959 557.841L308.42 573.994L319.448 582.356L329.562 569.821L325.959 557.841Z" fill="#FFB6B6"/>
<path d="M313.502 571.729C313.502 571.729 314.264 568.165 311.52 568.187C308.776 568.209 300.55 569.165 300.55 569.165C300.55 569.165 307.076 610.031 310.996 610C314.916 609.969 314.063 598.856 314.063 598.856L320.627 582.792L313.502 571.729V571.729Z" fill="#2F2E41"/>
<path d="M293.87 497.189C293.87 497.189 283.5 514.898 292.553 526.669C301.605 538.441 346.111 539.095 346.111 539.095L317.896 561.463L328.312 572.584C328.312 572.584 370.976 543.005 371.316 535.398C371.657 527.79 358.502 521.312 358.502 521.312L327.766 509.628L320.822 503.317L293.87 497.189H293.87Z" fill="#2F2E41"/>
<path d="M320.512 456.172C320.512 456.172 310.428 451.957 305.651 451.957C305.195 451.957 304.744 452.017 304.293 452.126C301.235 452.86 298.422 455.841 297.074 457.467C296.549 458.106 296.246 458.533 296.246 458.533C296.246 458.533 296.278 458.118 296.342 457.389C296.655 453.559 297.812 440.991 299.887 432.945C300.63 430.072 301.485 427.778 302.467 426.664C304.754 424.062 305.811 420.943 306.299 418.618C306.713 416.625 306.713 415.222 306.713 415.222L302.844 413.331L302.127 408.019C302 408.646 301.411 409.868 299.431 412.211C299.261 412.41 299.075 412.578 298.879 412.723C296.023 414.758 290.201 411.217 287.064 408.989C288.37 403.84 290.737 399.131 295.036 398.36C305.121 396.553 305.121 389.929 311.49 397.155C312.015 397.752 312.546 398.324 313.077 398.878C315.115 403.298 315.858 409.224 316.123 413.343C316.314 416.228 316.266 418.233 316.266 418.233C316.266 418.233 318.92 436.299 323.166 439.913C327.412 443.526 320.512 456.172 320.512 456.172V456.172Z" fill="#2F2E41"/>
<path d="M300.875 427.266L293.703 439.202L309.897 444.128V427.266H300.875Z" fill="#FFB6B6"/>
<path opacity="0.1" d="M300.875 427.266L293.703 439.202L309.897 444.128V427.266H300.875Z" fill="black"/>
<path d="M310.905 438.763L295.513 431.536C295.513 431.536 274.813 441.774 276.405 461.647C277.998 481.52 292.859 515.846 292.859 515.846L322.581 501.393L319.397 462.851L310.905 438.763V438.763Z" fill="#E6E6E6"/>
<path d="M304.305 432.595C311.805 432.595 317.885 425.697 317.885 417.187C317.885 408.678 311.805 401.78 304.305 401.78C296.805 401.78 290.726 408.678 290.726 417.187C290.726 425.697 296.805 432.595 304.305 432.595Z" fill="#FFB6B6"/>
<path d="M322.636 411.609C319.982 414.62 317.859 417.631 317.859 417.631L316.797 412.813C316.797 412.813 316.553 413.018 316.123 413.343C314.441 414.644 309.924 417.914 306.299 418.618C304.685 418.931 303.252 418.733 302.318 417.631C300.338 415.288 299.749 414.066 299.622 413.439L298.905 418.751L295.036 420.642C295.036 420.642 295.036 427.254 299.282 432.084C299.489 432.319 299.691 432.608 299.887 432.945C301.915 436.414 303.369 444.905 304.293 452.126C305.11 458.545 305.503 463.953 305.503 463.953C305.503 463.953 301.485 458.244 297.074 457.467C296.83 457.425 296.586 457.395 296.342 457.389C296.262 457.377 296.177 457.377 296.098 457.377C291.321 457.377 281.237 461.592 281.237 461.592C281.237 461.592 274.337 448.946 278.583 445.333C282.829 441.719 285.483 423.653 285.483 423.653C285.483 423.653 285.307 415.92 287.064 408.989C288.37 403.84 290.737 399.131 295.036 398.36C305.121 396.553 305.121 389.929 311.49 397.155C312.015 397.752 312.546 398.324 313.077 398.878C319.01 405.069 325.072 408.844 322.636 411.609V411.609Z" fill="#2F2E41"/>
<path d="M263.077 492.448H258.034V605.46H263.077V492.448Z" fill="#3F3D56"/>
<path d="M385.374 492.448H380.331V605.46H385.374V492.448Z" fill="#3F3D56"/>
<path d="M353.224 444.524H319.813V482.434H353.224V444.524Z" fill="#5852C5"/>
<path d="M300.555 484.832L314.139 475.03L319.662 478.81L300.555 503.721V484.832Z" fill="#FFB6B6"/>
<path d="M281.978 446.892C281.978 446.892 272.956 449.301 277.202 463.152C281.448 477.003 295.247 505.909 299.493 504.103C303.739 502.296 304.27 484.229 304.27 484.229C304.27 484.229 303.739 484.832 301.616 482.423C299.493 480.014 299.493 481.114 299.493 478.456C299.493 475.798 297.757 473.828 297.757 473.828L295.778 469.174C295.778 469.174 295.778 447.494 287.817 446.29C279.855 445.086 281.978 446.892 281.978 446.892H281.978Z" fill="#E6E6E6"/>
<path d="M324.133 478.162C327.657 474.164 328.749 468.921 326.573 466.451C324.397 463.982 319.776 465.221 316.252 469.219C312.728 473.217 311.636 478.46 313.813 480.93C315.989 483.399 320.61 482.16 324.133 478.162Z" fill="#FFB6B6"/>
<path d="M395.461 488.156H242.905V501.031H395.461V488.156Z" fill="#3F3D56"/>
<path d="M550.335 385.258H527.959C526.185 385.258 524.747 386.877 524.747 388.874V399.264C524.747 401.26 526.185 402.879 527.959 402.879H550.335C552.109 402.879 553.547 401.26 553.547 399.264V388.874C553.547 386.877 552.109 385.258 550.335 385.258Z" fill="#3F3D56"/>
<path d="M597.889 395.984H575.513C573.739 395.984 572.301 397.527 572.301 399.431V399.431C572.301 401.336 573.739 402.879 575.513 402.879H597.889C599.663 402.879 601.101 401.336 601.101 399.431V399.431C601.101 397.527 599.663 395.984 597.889 395.984Z" fill="#5852C5"/>
</g>
<defs>
<clipPath id="clip0_24_5">
<rect width="570" height="427" fill="white" transform="translate(220 183)"/>
</clipPath>
</defs>
</svg>
