<svg width="622" height="571" viewBox="0 0 622 571" fill="none" xmlns="http://www.w3.org/2000/svg">
<path d="M602.208 33.8453C642.886 77.9339 609.205 176.264 603.347 269.448C597.327 362.771 619.13 450.949 578.452 505.885C537.774 560.822 434.614 582.519 351.793 565.134C268.972 547.749 206.49 491.282 147.262 436.345C88.1976 381.408 32.387 328.001 10.4208 255.679C-11.7082 183.496 0.00713186 92.2592 59.072 48.3097C118.137 4.22112 224.877 7.28089 335.684 3.66479C446.492 0.0486887 561.53 -10.2433 602.208 33.8453Z" fill="#F9C096"/>
<g clip-path="url(#clip0_27_83)">
<path d="M555.983 368.487H143.017C134.185 368.487 127 361.3 127 352.466V302.75H572V352.466C572 361.3 564.815 368.487 555.983 368.487Z" fill="#E6E6E6"/>
<path d="M402.947 360.171H297.636V435.412H402.947V360.171Z" fill="#E6E6E6"/>
<path d="M409.282 425.908H291.302V435.412H409.282V425.908Z" fill="#E6E6E6"/>
<path d="M571.604 323.739H127V70.9945C127 64.9323 131.931 60 137.992 60H560.612C566.673 60 571.604 64.9323 571.604 70.9945V323.739Z" fill="#3F3D56"/>
<path d="M560.914 71.4839H137.294V309.878H560.914V71.4839Z" fill="white"/>
<path d="M219.333 213.574C222.575 210.894 226.586 210.395 228.29 212.46C229.995 214.524 228.748 218.369 225.504 221.049C224.223 222.137 222.7 222.903 221.063 223.282L207.181 234.463L202.075 227.835L216.301 217.517C216.983 215.979 218.022 214.627 219.333 213.574H219.333Z" fill="#FFB6B6"/>
<path d="M139.101 238.8C139.094 238.306 139.099 233.993 142.291 231.267C145.958 228.135 151.133 229.403 152.948 229.847C157.14 230.874 157.484 232.673 161.421 234.521C168.787 237.979 159.558 236.209 163.941 235.1C165.458 234.717 187.284 233.203 192.717 229.858C203.284 223.353 210.483 219.408 210.483 219.408L215.19 228.824C215.19 228.824 208.384 238.289 198.806 245.301C188.98 252.494 184.068 256.09 176.602 257.48C175.959 257.6 160.147 260.3 147.412 250.783C144.507 248.612 139.184 244.635 139.101 238.8L139.101 238.8Z" fill="#5852C5"/>
<path d="M153.701 214.855C162.756 214.855 170.097 207.513 170.097 198.455C170.097 189.398 162.756 182.056 153.701 182.056C144.646 182.056 137.306 189.398 137.306 198.455C137.306 207.513 144.646 214.855 153.701 214.855Z" fill="#FFB6B6"/>
<path d="M282.105 308.634L265.22 291.346L256.504 300.441L269.084 317.017L281.562 318.444L282.105 308.634Z" fill="#FFB6B6"/>
<path d="M185.69 276.215C186.678 276.297 189.816 276.926 192.816 275.275C194.863 274.149 195.913 272.474 196.268 271.941C200.667 265.332 217.554 255.025 232.709 254.391C236.141 254.247 238.4 254.645 240.453 255.716C243.365 257.234 244.527 259.408 248.221 264.502C250.242 267.288 252.479 269.914 254.524 272.682C266.498 288.89 271.038 290.163 270.574 295.359C270.059 301.125 263.842 306.594 259.711 305.963C258.019 305.704 257.363 304.527 255.103 302.145C248.474 295.16 245.732 296.45 241.013 291.1C235.503 284.853 236.225 279.674 233.35 279.474C230.684 279.288 229.551 283.707 223.86 289.576C221.256 292.262 219.402 293.494 213.753 297.415C191.752 312.681 191.401 313.754 186.961 314.971C185.019 315.504 171.231 319.285 166.32 313.268C158.634 303.853 176.791 275.476 185.69 276.215V276.215Z" fill="#2F2E41"/>
<path d="M276.943 312.541C278.185 311.984 279.637 311.331 280.104 309.832C280.42 308.817 280.238 307.566 279.585 306.701C278.831 305.703 277.715 305.572 277.76 305.395C277.829 305.127 280.468 305.232 283.364 306.256C283.911 306.449 286.387 307.354 289.537 309.814C292.061 311.785 291.721 312.18 293.304 313.316C298.162 316.804 302.718 314.055 305.347 317.326C306.362 318.589 306.794 320.381 306.367 321.831C305.51 324.741 301.341 325.743 299.062 326.26C293.574 327.506 289.42 326.489 285.082 325.758C270.331 323.271 262.043 325.536 260.934 322.118C260.724 321.471 261.065 321.526 262.203 316.778C263.325 312.093 263.288 310.806 264.244 310.43C265.684 309.866 266.65 312.435 270.275 313.314C273.488 314.093 276.139 312.903 276.943 312.541H276.943Z" fill="#2F2E41"/>
<path d="M252.086 365.191L247.82 341.401L235.502 344.031L236.606 364.813L246.13 373.003L252.086 365.191Z" fill="#FFB6B6"/>
<path d="M190.508 284.211C191.279 284.834 193.523 287.117 196.932 287.436C199.258 287.654 201.067 286.857 201.66 286.616C209.011 283.618 228.769 284.575 241.665 292.562C244.586 294.371 246.232 295.969 247.33 298.008C248.886 300.899 248.627 303.351 248.825 309.641C248.933 313.082 249.31 316.51 249.448 319.95C250.256 340.087 253.298 343.69 249.997 347.729C246.334 352.21 238.12 353.245 235.056 350.401C233.801 349.237 233.919 347.895 233.386 344.654C231.823 335.151 228.829 334.679 227.928 327.601C226.876 319.337 230.381 315.457 228.114 313.677C226.013 312.026 222.595 315.046 214.591 316.706C210.928 317.466 208.702 317.444 201.826 317.515C175.052 317.79 174.159 318.48 169.802 316.994C167.895 316.344 154.364 311.728 153.678 303.991C152.604 291.883 183.559 278.601 190.508 284.211H190.508Z" fill="#2F2E41"/>
<path d="M245.622 365.524C246.962 365.76 248.53 366.036 249.758 365.057C250.59 364.395 251.142 363.257 251.086 362.175C251.023 360.926 250.173 360.19 250.31 360.07C250.517 359.886 252.642 361.455 254.464 363.929C254.807 364.396 256.348 366.536 257.574 370.341C258.556 373.389 258.053 373.525 258.724 375.354C260.786 380.969 266.099 381.254 266.438 385.437C266.569 387.051 265.921 388.778 264.754 389.737C262.41 391.664 258.398 390.151 256.222 389.299C250.982 387.247 248.115 384.072 244.937 381.031C234.127 370.689 225.998 367.907 226.999 364.456C227.188 363.803 227.44 364.04 231.046 360.75C234.605 357.504 235.297 356.418 236.299 356.645C237.807 356.985 237.164 359.654 239.67 362.418C241.891 364.867 244.753 365.371 245.622 365.524Z" fill="#2F2E41"/>
<path d="M155.937 201.59C156.575 199.307 155.773 198.474 156.59 197.449C156.59 197.449 156.919 197.037 159.859 195.924C158.992 190.89 159.641 190.039 159.641 190.039C160.389 189.058 161.889 188.821 162.91 188.949C165.068 189.22 165.451 191.172 166.832 191.128C168.74 191.068 171.029 187.247 170.318 183.936C169.739 181.235 167.24 179.229 166.614 179.577C165.993 179.922 163.757 178.4 162.91 178.705C162.331 178.913 159.605 178.636 158.987 178.923C158.312 179.236 156.38 181.186 156.195 180.94C154.911 179.233 154.938 178.637 154.193 178.269C152.873 177.617 151.438 178.822 148.964 180.013C143.872 182.462 142.381 181.001 140.03 183.064C138.842 184.106 138.204 186.098 136.979 190.039C135.265 195.55 134.408 198.305 135.236 200.937C136.08 203.62 137.323 203.036 139.158 206.821C141.2 211.036 140.496 213.485 142.427 214.45C143.918 215.196 146.315 214.721 147.22 213.36C148.77 211.03 144.765 207.878 146.131 204.206C146.969 201.952 149.556 200.243 151.143 200.719C152.936 201.257 153.069 204.474 154.193 204.424C155.157 204.381 155.825 201.988 155.937 201.59H155.937Z" fill="#2F2E41"/>
<path d="M143.516 217.284C146.871 213.521 160.537 217.415 161.82 223.386C162.348 225.842 160.4 226.879 160.948 229.707C161.751 233.843 166.293 233.561 169.665 237.772C174.451 243.749 169.52 249.592 174.894 259.567C176.043 261.699 177.011 263.496 179.035 265.234C183.679 269.224 188.001 267.856 190.366 271.555C192.134 274.322 191.407 277.731 191.237 278.53C190.539 281.805 188.648 282.603 187.315 285.287C185.097 289.751 187.608 293.029 187.751 298.364C187.929 305.039 184.383 314.291 177.291 317.326C169.324 320.737 159.715 315.088 155.065 309.48C152.29 306.133 151.485 303.046 150.271 299.236C144.846 282.206 141.781 283.747 137.633 270.247C132.89 254.815 131.958 236.736 137.633 231.015C138.385 230.257 140.455 228.504 141.773 225.348C143.546 221.101 142.014 218.968 143.516 217.284L143.516 217.284Z" fill="#5852C5"/>
<path d="M193.091 304.877C195.693 308.183 196.096 312.205 193.992 313.86C191.889 315.516 188.075 314.178 185.474 310.87C184.416 309.564 183.687 308.022 183.347 306.376L172.502 292.229L178.106 287.954L189.223 301.752C190.743 302.469 192.07 303.541 193.091 304.877H193.091Z" fill="#FFB6B6"/>
<path d="M153.374 231.624C153.856 231.516 158.079 230.641 161.398 233.21C165.211 236.162 165.027 241.488 164.962 243.356C164.812 247.67 163.122 248.374 162.116 252.606C160.235 260.525 163.818 267.884 165.797 271.949C166.483 273.356 168.684 277.662 173.066 282.3C181.589 291.319 189.193 296.065 189.193 296.065L181.024 303.329C181.024 303.329 168.011 299.361 159.194 291.413C150.149 283.26 136.24 254.413 133.357 247.386C133.109 246.781 136.626 256.619 143.342 242.207C144.874 238.919 147.68 232.896 153.374 231.624H153.374Z" fill="#5852C5"/>
<path d="M362.458 224.857L352.704 220.236C356.705 225.82 360.152 234.542 361.997 241.482C365.122 235.018 370.159 227.107 375.146 222.382L364.837 225.035C371.189 193.895 395.081 171.54 422.441 171.54L422.829 170.415C394.25 170.415 368.944 192.46 362.458 224.857Z" fill="#3F3D56"/>
<path d="M407.351 272.305H345.722C343.108 272.305 340.982 270.177 340.982 267.563C340.982 264.948 343.108 262.821 345.722 262.821H407.351C409.965 262.821 412.092 264.948 412.092 267.563C412.092 270.177 409.965 272.305 407.351 272.305Z" fill="#5852C5"/>
<path d="M489.357 272.305H427.728C425.114 272.305 422.987 270.177 422.987 267.563C422.987 264.948 425.114 262.821 427.728 262.821H489.357C491.971 262.821 494.098 264.948 494.098 267.563C494.098 270.177 491.971 272.305 489.357 272.305Z" fill="#E6E6E6"/>
<path d="M452.873 143.306H392.967C391.456 143.306 390.227 142.077 390.227 140.566C390.227 139.056 391.456 137.827 392.967 137.827H452.873C454.383 137.827 455.612 139.056 455.612 140.566C455.612 142.077 454.383 143.306 452.873 143.306V143.306Z" fill="#3F3D56"/>
<path d="M485.02 172.536H360.82C359.31 172.536 358.081 171.307 358.081 169.796C358.081 168.285 359.31 167.057 360.82 167.057H485.02C486.53 167.057 487.758 168.285 487.758 169.796C487.758 171.307 486.53 172.536 485.02 172.536Z" fill="#3F3D56"/>
<path d="M153.928 436.112C153.928 436.605 154.323 437 154.816 437H544.185C544.677 437 545.072 436.605 545.072 436.112C545.072 435.62 544.677 435.225 544.185 435.225H154.816C154.323 435.225 153.928 435.62 153.928 436.112Z" fill="#3F3D56"/>
<path d="M249.538 225.764C249.432 225.764 249.327 225.76 249.221 225.753C242.982 225.352 221.633 222.331 208.889 200.289C207.838 198.475 208.045 196.167 209.403 194.549L233.006 166.42C233.971 165.27 235.462 164.607 236.972 164.625C238.016 164.65 240.487 164.914 240.967 166.819C243.802 178.077 255.775 191.313 270.174 193.067C271.633 193.245 272.805 194.547 273.308 196.551C273.7 198.111 273.338 199.719 272.313 200.963L253.405 223.928C252.444 225.095 251.035 225.763 249.538 225.763V225.764ZM236.882 165.757C235.728 165.757 234.606 166.274 233.873 167.148L210.271 195.276C209.217 196.532 209.056 198.318 209.868 199.722C222.332 221.278 243.196 224.231 249.294 224.623C250.539 224.707 251.734 224.176 252.531 223.209L271.439 200.243C272.233 199.279 272.514 198.035 272.21 196.827C271.913 195.644 271.186 194.331 270.037 194.191C255.162 192.379 242.796 178.716 239.869 167.096C239.632 166.155 238.205 165.787 236.949 165.757C236.926 165.757 236.904 165.757 236.882 165.757H236.882Z" fill="#3F3D56"/>
<path d="M223.192 201.215L240.208 183.86C241.372 182.674 239.549 180.848 238.385 182.036L221.368 199.391C220.205 200.577 222.027 202.403 223.192 201.215Z" fill="#E6E6E6"/>
<path d="M233.462 206.105C238.159 201.894 242.24 197.019 245.582 191.67C246.464 190.258 244.233 188.961 243.355 190.368C240.124 195.539 236.178 200.21 231.639 204.28C230.4 205.391 232.229 207.21 233.462 206.105H233.462Z" fill="#E6E6E6"/>
<path d="M242.719 211.959C246.995 207.221 250.635 201.934 253.5 196.23C254.243 194.751 252.019 193.443 251.273 194.928C248.504 200.439 245.027 205.556 240.895 210.135C239.785 211.365 241.604 213.195 242.719 211.959H242.719Z" fill="#E6E6E6"/>
<path d="M235.429 180.715C244.904 180.715 252.585 173.194 252.585 163.917C252.585 154.639 244.904 147.118 235.429 147.118C225.954 147.118 218.273 154.639 218.273 163.917C218.273 173.194 225.954 180.715 235.429 180.715Z" fill="#5852C5"/>
<path d="M244.355 171.885C241.717 165.396 239.078 158.908 236.44 152.419C236.075 151.523 234.934 151.491 234.578 152.419C231.971 159.222 230.267 166.32 229.448 173.558C229.309 174.791 231.241 174.781 231.379 173.558C231.699 170.726 232.175 167.915 232.786 165.134C234.96 165.248 237.152 165.004 239.25 164.423C240.332 167.081 241.413 169.74 242.494 172.399C242.956 173.535 244.824 173.038 244.355 171.885ZM233.224 163.225C233.874 160.562 234.654 157.932 235.558 155.343L238.517 162.62C236.784 163.075 235.012 163.277 233.224 163.225Z" fill="white"/>
</g>
<defs>
<clipPath id="clip0_27_83">
<rect width="445" height="377" fill="white" transform="translate(127 60)"/>
</clipPath>
</defs>
</svg>
