<svg width="999" height="838" viewBox="0 0 999 838" fill="none" xmlns="http://www.w3.org/2000/svg">
<path d="M806.451 147.934C857.07 200.824 815.157 318.786 807.868 430.574C800.376 542.53 827.508 648.311 776.889 714.216C726.27 780.121 597.901 806.15 494.841 785.294C391.78 764.438 314.03 696.697 240.329 630.792C166.83 564.887 97.3806 500.818 70.0464 414.056C42.5097 327.462 57.088 218.01 130.587 165.286C204.085 112.395 336.909 116.066 474.795 111.728C612.681 107.389 755.832 95.0427 806.451 147.934Z" fill="#F9C096"/>
<path d="M699.201 386.908H264.232C258.402 386.908 253.658 381.179 253.658 374.135V194.772C253.658 187.73 258.402 182 264.232 182H699.201C705.031 182 709.774 187.73 709.774 194.772V374.135C709.774 381.179 705.031 386.908 699.201 386.908ZM264.232 183.523C259.097 183.523 254.919 188.569 254.919 194.772V374.135C254.919 380.338 259.097 385.386 264.232 385.386H699.201C704.336 385.386 708.514 380.338 708.514 374.135V194.772C708.514 188.569 704.336 183.523 699.201 183.523H264.232V183.523Z" fill="#F0EFF8"/>
<path d="M504.248 267.867C508.259 265.667 510.483 260.969 509.215 257.375C507.947 253.78 503.667 252.651 499.655 254.854C498.041 255.702 496.636 257.082 495.557 258.877L478.667 268.503L482.897 279.581L499.099 268.916C500.89 269.138 502.655 268.778 504.248 267.867Z" fill="#FFB6B6"/>
<path d="M409.13 317.533C409.13 317.533 402.378 308.145 407.289 300.476C412.2 292.808 478.6 265.53 478.6 265.53L483.418 280.355L436.678 299.791L409.13 317.533L409.13 317.533Z" fill="#E6E6E6"/>
<path d="M418.502 531.23L425.806 531.23L429.281 497.165L418.5 497.165L418.502 531.23Z" fill="#FFB6B6"/>
<path d="M443.528 531.03C443.756 531.493 443.876 532.988 443.876 533.527C443.876 535.182 442.766 536.524 441.397 536.524H418.775C417.841 536.524 417.084 535.608 417.084 534.479V533.34C417.084 533.34 415.965 529.918 418.269 525.7C418.269 525.7 421.132 529.003 425.411 523.83L426.673 521.066L435.806 529.142L440.869 529.896C441.977 530.06 442.959 529.87 443.528 531.03H443.528H443.528Z" fill="#2F2E41"/>
<path d="M460.773 529.768L467.85 527.582L464.243 493.537L453.798 496.764L460.773 529.768Z" fill="#FFB6B6"/>
<path d="M484.98 522.085C485.295 522.466 485.717 523.878 485.827 524.4C486.166 526.004 485.366 527.636 484.039 528.046L462.121 534.815C461.216 535.095 460.295 534.434 460.064 533.34L459.831 532.237C459.831 532.237 458.046 529.256 459.415 524.479C459.415 524.479 462.865 526.823 465.952 520.53L466.609 517.475L477.111 522.566L482.171 521.781C483.278 521.61 484.19 521.131 484.98 522.085H484.98V522.085Z" fill="#2F2E41"/>
<path d="M412.458 270.812L412.112 267.773L416.228 255.618L427.539 254.099L429.981 271.5L412.458 270.812Z" fill="#FFB6B6"/>
<path opacity="0.1" d="M412.458 270.812L412.112 267.773L416.228 255.618L427.539 254.099L429.981 271.5L412.458 270.812Z" fill="black"/>
<path d="M399.263 356.658L394.236 373.371L398.006 382.487L416.857 514.674H429.389L426.91 397.681L455.814 514.674H468.218L458.244 435.666L450.787 362.735L446.265 359.357L424.397 344.502L399.263 356.658Z" fill="#2F2E41"/>
<path d="M431.309 368.053L423.769 369.572L413.715 340.704H436.336L431.309 368.053Z" fill="#E6E6E6"/>
<path d="M446.389 360.456L431.309 368.053L426.282 354.379L423.769 369.572L397.378 359.301L401.148 340.704L397.378 279.929L410.687 269.202L412.458 267.773L428.795 269.293L430.228 270.235L440.106 276.89L442.619 327.03L446.389 360.456Z" fill="#2F2E41"/>
<path d="M430.228 270.235L423.14 306.518L410.687 269.202L412.458 267.773L428.795 269.293L430.228 270.235Z" fill="#E6E6E6"/>
<path d="M418.114 267.773L415.6 273.007L418.114 274.751L416.857 306.612L421.884 314.874L426.911 302.663L423.14 274.751L424.397 267.773H418.114Z" fill="#2F2E41"/>
<path d="M421.884 264.735C428.477 264.735 433.822 258.272 433.822 250.3C433.822 242.329 428.477 235.866 421.884 235.866C415.29 235.866 409.945 242.329 409.945 250.3C409.945 258.272 415.29 264.735 421.884 264.735Z" fill="#FFB6B6"/>
<path d="M414.254 251.566L416.834 252.928L417.959 244.761C417.959 244.761 422.463 242.039 425.84 243.4C429.217 244.761 434.846 243.4 434.846 243.4C434.846 243.4 434.846 229.789 426.966 229.789C419.085 229.789 411.205 231.15 411.205 235.233C411.205 239.316 407.827 243.4 407.827 243.4C407.827 243.4 403.324 251.566 407.827 257.011C412.33 262.455 414.582 262.455 414.582 262.455L414.254 251.566Z" fill="#2F2E41"/>
<path d="M391.089 393.298C390.958 399.168 393.357 404.008 396.447 404.108C399.536 404.208 402.146 399.531 402.277 393.659C402.355 391.314 401.968 388.981 401.148 386.854L401.443 361.975L391.784 362.057L392.518 386.574C391.605 388.645 391.114 390.951 391.089 393.298V393.298Z" fill="#FFB6B6"/>
<path d="M403.039 276.861C403.039 276.861 394.871 273.822 391.101 282.939C387.331 292.055 392.358 384.738 392.358 384.738H405.038L401.673 319.404L403.039 276.861V276.861Z" fill="#E6E6E6"/>
<path d="M716.391 449.529L685.929 438.255C685.256 438.005 684.549 437.914 683.847 437.986L529.461 453.872C527.26 454.099 526.707 457.688 528.693 458.858L533.638 461.771H533.506V601.212H538.166V464.438L553.665 473.567C554.851 474.266 556.174 474.551 557.487 474.39L559.136 474.189V601.212H563.796V473.62L683.205 459.037V601.212H687.865V458.468L707.669 456.049V601.212H712.329V455.48L715.942 455.039C718.479 454.729 718.829 450.431 716.391 449.529H716.391Z" fill="#3F3D56"/>
<path d="M574.28 453.32C577.193 453.32 620.297 446.981 620.297 446.981L626.704 457.545L581.853 468.109L574.28 453.32V453.32Z" fill="white"/>
<path d="M621.588 595.797L614.099 595.78L610.586 560.849L621.639 560.873L621.588 595.797Z" fill="#A0616A"/>
<path d="M595.93 595.538C595.697 596.012 595.571 597.544 595.571 598.096C595.568 599.794 596.704 601.172 598.108 601.175L621.3 601.223C622.257 601.225 623.035 600.288 623.037 599.13L623.038 597.963C623.038 597.963 624.19 594.456 621.835 590.127C621.835 590.127 618.894 593.507 614.515 588.194L613.225 585.358L603.85 593.619L598.658 594.38C597.523 594.547 596.516 594.35 595.931 595.538H595.93L595.93 595.538Z" fill="#2F2E41"/>
<path d="M661.78 579.553L655.872 584.941L635.87 559.951L644.59 551.999L661.78 579.553Z" fill="#A0616A"/>
<path d="M641.437 597.853C641.487 598.395 642.144 599.693 642.416 600.128C643.251 601.467 644.826 601.734 645.934 600.724L664.231 584.036C664.986 583.347 665.137 582.047 664.567 581.134L663.992 580.213C663.992 580.213 663.17 576.619 659.178 574.907C659.178 574.907 658.529 579.691 652.457 578.663L650.042 577.359L646.73 590.629L643.015 594.973C642.203 595.924 641.312 596.494 641.437 597.853L641.437 597.853V597.853Z" fill="#2F2E41"/>
<path d="M646.129 399.021C646.129 407.37 640.531 414.139 633.625 414.139C626.719 414.139 621.121 407.37 621.121 399.021C621.121 390.671 626.719 383.903 633.625 383.903C640.531 383.903 646.129 390.671 646.129 399.021Z" fill="#A0616A"/>
<path d="M644.951 486.189C644.951 486.189 598.912 483.038 596.306 489.339C593.7 495.641 610.394 582.197 610.394 582.197L625.288 578.423L618.022 517.696C618.022 517.696 656.441 529.997 661.653 515.294C666.865 500.591 665.365 495.116 665.365 495.116L644.951 486.189V486.189Z" fill="#2F2E41"/>
<path d="M656.747 475.611C656.747 475.611 611.658 487.297 610.524 494.208C609.39 501.118 644.428 579.252 644.428 579.252L657.965 570.849L637.671 514.608C637.671 514.608 677.413 514.184 679.222 498.338C681.031 482.491 678.386 477.691 678.386 477.691L656.747 475.611V475.611Z" fill="#2F2E41"/>
<path d="M661.89 416.347H640.228L625.406 445.754C625.406 445.754 621.932 464.758 625.406 466.808C628.881 468.859 628.881 490.914 628.881 490.914L665.365 495.115C665.365 495.115 670.577 428.95 668.839 422.649C667.102 416.347 661.89 416.347 661.89 416.347V416.347Z" fill="#5852C5"/>
<path d="M627.578 435.777L625.406 466.809L600.98 454.275L595.15 450.73C594.008 448.93 592.527 447.487 590.829 446.521C586.607 444.033 582.125 444.649 580.816 447.897C579.507 451.144 581.867 455.792 586.088 458.279C587.763 459.301 589.617 459.822 591.494 459.8L608.551 471.513L608.571 471.467L608.647 471.631L635.396 485.138L641.551 444.401L627.578 435.777H627.578Z" fill="#A0616A"/>
<path d="M624.972 401.119C624.972 401.119 611.942 403.219 617.154 389.566C617.154 389.566 616.359 382.165 620.231 381.664C624.103 381.164 629.315 372.762 629.315 372.762C629.315 372.762 641.264 365.41 647.451 372.762C653.638 380.114 671.88 423.174 671.88 423.174L659.718 438.927C659.718 438.927 652.407 415.69 643.901 418.381C635.396 421.073 627.578 429.099 627.578 429.099C627.578 429.099 618.946 423.876 622.828 419.324C626.709 414.772 624.972 401.119 624.972 401.119Z" fill="#2F2E41"/>
<path d="M642.345 424.224C642.345 424.224 636.265 414.772 631.921 422.123C627.578 429.475 624.103 438.927 624.103 438.927L641.476 446.279L642.345 424.224H642.345Z" fill="#5852C5"/>
<path d="M708.309 599.121L688.124 521.555L688.127 521.554H688.174L688.092 521.427L688.09 521.425L686.653 515.9L686.653 515.899C688.844 513.617 690.335 510.357 690.632 506.603L681.405 445.249C682.04 437.193 676.932 430.15 670.239 429.861L649.421 429.798C643.503 429.544 638.377 434.714 637.515 441.798L637.055 445.559L630.677 498.018C630.444 499.906 630.537 501.765 630.904 503.504L626.314 504.23L624.922 504.455L619.417 505.321L619.4 505.328L618.712 505.434H617.967V527.97H618.013V600C618.013 600.465 618.328 600.845 618.712 600.845C619.103 600.845 619.417 600.465 619.417 600V527.97H627.584L635.733 599.916C635.785 600.338 636.082 600.648 636.432 600.648C636.461 600.648 636.496 600.648 636.525 600.641C636.909 600.578 637.177 600.148 637.125 599.683L629.005 527.97H668.189C672.079 527.97 675.685 526.477 678.62 523.921L694.156 599.784C694.237 600.168 694.522 600.423 694.835 600.423C694.893 600.423 694.951 600.414 695.009 600.397C695.384 600.281 695.611 599.819 695.516 599.365L679.83 522.769C680.038 522.559 680.247 522.335 680.444 522.103L686.681 521.66L706.97 599.63C707.065 599.992 707.341 600.224 707.639 600.224C707.709 600.224 707.78 600.212 707.85 600.185C708.22 600.044 708.425 599.568 708.309 599.121V599.121ZM685.32 517.103C685.372 517.068 685.419 517.026 685.465 516.991L685.466 516.99L685.615 517.566L685.32 517.103V517.103Z" fill="#E6E6E6"/>
<path d="M312.25 467.643L325.834 457.199L331.357 461.226L312.25 487.771V467.643Z" fill="#FFB6B6"/>
<path d="M293.673 427.216C293.673 427.216 284.65 429.783 288.896 444.542C293.142 459.301 306.942 490.103 311.188 488.178C315.434 486.253 315.965 467.002 315.965 467.002C315.965 467.002 315.434 467.644 313.311 465.077C311.188 462.51 311.188 463.682 311.188 460.85C311.188 458.018 309.451 455.919 309.451 455.919L307.473 450.959C307.473 450.959 307.473 427.858 299.511 426.574C291.55 425.291 293.673 427.216 293.673 427.216L293.673 427.216Z" fill="#E6E6E6"/>
<path d="M335.828 460.536C339.352 456.276 340.444 450.689 338.268 448.058C336.091 445.427 331.47 446.747 327.947 451.007C324.423 455.268 323.331 460.854 325.507 463.486C327.684 466.117 332.304 464.796 335.828 460.536Z" fill="#FFB6B6"/>
<path d="M258.529 512.242L267.798 530.791L321.816 526.927L307.433 504.513L258.529 512.242Z" fill="#E6E6E6"/>
<path d="M274.669 599C274.355 599 274.081 598.719 274.037 598.332L257.895 455.8C257.847 455.377 258.092 454.987 258.442 454.929C258.792 454.868 259.114 455.167 259.162 455.59L275.304 598.122C275.352 598.545 275.107 598.935 274.757 598.992C274.728 598.997 274.698 599 274.669 599Z" fill="#E6E6E6"/>
<path d="M258.529 599.181C258.176 599.181 257.889 598.835 257.889 598.408V455.723C257.889 455.296 258.176 454.95 258.529 454.95C258.882 454.95 259.168 455.296 259.168 455.723V598.408C259.168 598.835 258.882 599.181 258.529 599.181Z" fill="#E6E6E6"/>
<path d="M339.556 598.614C339.284 598.614 339.032 598.402 338.946 598.072L300.75 451.29C300.644 450.883 300.831 450.449 301.168 450.32C301.505 450.193 301.864 450.419 301.97 450.826L340.166 597.608C340.272 598.015 340.085 598.449 339.748 598.578C339.684 598.602 339.62 598.614 339.556 598.614V598.614Z" fill="#E6E6E6"/>
<path d="M327.889 598.794C327.603 598.794 327.343 598.562 327.27 598.212L300.74 468.666C300.653 468.253 300.86 467.832 301.202 467.726C301.545 467.622 301.892 467.871 301.979 468.285L328.509 597.831C328.596 598.245 328.389 598.665 328.047 598.771C327.994 598.787 327.941 598.794 327.889 598.794H327.889Z" fill="#E6E6E6"/>
<path d="M258.529 457.995L302.798 457.172L310.949 513.401H259.168L258.529 457.995Z" fill="#E6E6E6"/>
<path d="M326.56 540.676L315.403 564.424L328.357 567.872L333.757 550.982L326.56 540.676Z" fill="#FFB6B6"/>
<path d="M319.41 559.941C319.41 559.941 318.977 556.068 316.428 557.297C313.879 558.526 306.524 563.093 306.524 563.093C306.524 563.093 325.709 600.783 329.35 599.028C332.991 597.272 328.632 586.618 328.632 586.618L329.594 567.786L319.41 559.941H319.41Z" fill="#2F2E41"/>
<path d="M277.219 494.595C277.219 494.595 273.239 516.734 285.446 524.434C297.653 532.135 339.318 513.205 339.318 513.205L320.211 547.819L333.479 554.274C333.479 554.274 363.733 506.146 361.61 498.445C359.487 490.745 345.156 490.103 345.156 490.103L312.78 492.028L304.288 488.82L277.219 494.595H277.219Z" fill="#2F2E41"/>
<path d="M310.054 551.216L292.515 568.427L303.543 577.338L313.657 563.981L310.054 551.216Z" fill="#FFB6B6"/>
<path d="M297.597 566.014C297.597 566.014 298.359 562.216 295.615 562.24C292.871 562.263 284.645 563.281 284.645 563.281C284.645 563.281 291.172 606.828 295.091 606.795C299.011 606.761 298.158 594.92 298.158 594.92L304.722 577.802L297.597 566.014V566.014Z" fill="#2F2E41"/>
<path d="M277.966 486.587C277.966 486.587 267.595 505.457 276.648 518C285.701 530.543 330.206 531.241 330.206 531.241L301.991 555.076L312.408 566.926C312.408 566.926 355.072 535.407 355.412 527.3C355.752 519.194 342.597 512.292 342.597 512.292L311.861 499.841L304.917 493.116L277.966 486.587H277.966Z" fill="#2F2E41"/>
<path d="M304.608 442.88C304.608 442.88 294.523 438.388 289.747 438.388C289.29 438.388 288.839 438.452 288.388 438.568C285.331 439.351 282.518 442.527 281.17 444.26C280.644 444.94 280.342 445.395 280.342 445.395C280.342 445.395 280.373 444.953 280.437 444.176C280.75 440.095 281.907 426.703 283.983 418.129C284.726 415.069 285.58 412.624 286.562 411.437C288.85 408.664 289.906 405.34 290.394 402.863C290.808 400.739 290.808 399.244 290.808 399.244L286.939 397.229L286.222 391.569C286.095 392.237 285.506 393.539 283.526 396.036C283.356 396.247 283.17 396.427 282.974 396.581C280.119 398.75 274.296 394.977 271.159 392.603C272.465 387.116 274.832 382.098 279.131 381.276C289.216 379.351 289.216 372.293 295.585 379.993C296.11 380.628 296.641 381.238 297.172 381.828C299.21 386.538 299.953 392.853 300.218 397.242C300.409 400.316 300.362 402.453 300.362 402.453C300.362 402.453 303.015 421.704 307.261 425.554C311.508 429.404 304.608 442.88 304.608 442.88V442.88Z" fill="#2F2E41"/>
<path d="M284.97 412.078L277.798 424.796L293.993 430.046V412.078H284.97Z" fill="#FFB6B6"/>
<path opacity="0.1" d="M284.97 412.078L277.798 424.796L293.993 430.046V412.078H284.97Z" fill="black"/>
<path d="M295 424.328L279.608 416.628C279.608 416.628 258.908 427.537 260.501 448.713C262.093 469.889 276.954 506.466 276.954 506.466L306.676 491.066L303.492 449.997L295 424.328V424.328Z" fill="#E6E6E6"/>
<path d="M288.4 417.756C295.9 417.756 301.98 410.406 301.98 401.338C301.98 392.271 295.9 384.92 288.4 384.92C280.901 384.92 274.821 392.271 274.821 401.338C274.821 410.406 280.901 417.756 288.4 417.756Z" fill="#FFB6B6"/>
<path d="M306.731 395.394C304.077 398.602 301.954 401.811 301.954 401.811L300.892 396.677C300.892 396.677 300.648 396.895 300.218 397.242C298.536 398.628 294.019 402.113 290.394 402.863C288.781 403.197 287.347 402.985 286.413 401.811C284.434 399.315 283.844 398.012 283.717 397.345L283.001 403.005L279.131 405.019C279.131 405.019 279.131 412.065 283.377 417.212C283.584 417.462 283.786 417.77 283.982 418.129C286.01 421.826 287.464 430.874 288.388 438.568C289.205 445.408 289.598 451.171 289.598 451.171C289.598 451.171 285.58 445.087 281.169 444.26C280.925 444.215 280.681 444.183 280.437 444.176C280.357 444.163 280.273 444.163 280.193 444.163C275.416 444.163 265.332 448.655 265.332 448.655C265.332 448.655 258.432 435.18 262.678 431.329C266.924 427.479 269.578 408.228 269.578 408.228C269.578 408.228 269.403 399.989 271.159 392.603C272.465 387.116 274.832 382.098 279.131 381.276C289.216 379.351 289.216 372.293 295.585 379.993C296.11 380.628 296.641 381.238 297.172 381.828C303.106 388.425 309.167 392.449 306.731 395.394V395.394Z" fill="#2F2E41"/>
<path d="M247.173 481.534H242.129V601.957H247.173V481.534Z" fill="#3F3D56"/>
<path d="M369.469 481.534H364.426V601.957H369.469V481.534Z" fill="#3F3D56"/>
<path d="M337.319 430.468H303.908V470.863H337.319V430.468Z" fill="#5852C5"/>
<path d="M284.65 473.418L298.234 462.974L303.757 467.001L284.65 493.546V473.418Z" fill="#FFB6B6"/>
<path d="M266.074 432.991C266.074 432.991 257.051 435.558 261.297 450.317C265.543 465.076 279.342 495.878 283.589 493.953C287.835 492.028 288.365 472.777 288.365 472.777C288.365 472.777 287.835 473.418 285.712 470.852C283.589 468.285 283.589 469.457 283.589 466.625C283.589 463.793 281.852 461.693 281.852 461.693L279.873 456.734C279.873 456.734 279.873 433.633 271.912 432.349C263.951 431.066 266.074 432.991 266.074 432.991H266.074Z" fill="#E6E6E6"/>
<path d="M308.229 466.311C311.752 462.051 312.845 456.464 310.668 453.833C308.492 451.202 303.871 452.522 300.347 456.782C296.824 461.043 295.732 466.629 297.908 469.26C300.084 471.892 304.705 470.571 308.229 466.311Z" fill="#FFB6B6"/>
<path d="M379.556 476.961H227V490.68H379.556V476.961Z" fill="#3F3D56"/>
<path d="M534.431 367.315H512.054C510.28 367.315 508.842 369.04 508.842 371.168V382.239C508.842 384.367 510.28 386.092 512.054 386.092H534.431C536.205 386.092 537.643 384.367 537.643 382.239V371.168C537.643 369.04 536.205 367.315 534.431 367.315Z" fill="#3F3D56"/>
<path d="M581.984 378.745H559.608C557.834 378.745 556.396 380.389 556.396 382.418V382.418C556.396 384.447 557.834 386.092 559.608 386.092H581.984C583.758 386.092 585.196 384.447 585.196 382.418V382.418C585.196 380.389 583.758 378.745 581.984 378.745Z" fill="#5852C5"/>
</svg>
